<?xml version="1.0" encoding="utf-8"?>
<!-- Generator: Adobe Illustrator 19.2.1, SVG Export Plug-In . SVG Version: 6.00 Build 0)  -->
<svg version="1.1" id="Layer_1" xmlns="http://www.w3.org/2000/svg" xmlns:xlink="http://www.w3.org/1999/xlink" x="0px" y="0px"
	 viewBox="0 0 771.1 170.9" style="enable-background:new 0 0 771.1 170.9;" xml:space="preserve">
<style type="text/css">
	.st0{fill:#FFFFFF;}
</style>
<path class="st0" d="M566.2,108.9c0-1.7-0.6-3.1-1.9-3.8c-0.8-0.4-1.7-0.5-2.9-0.5h-5.2v8.7h5.9
	C564.8,113.3,566.2,111.4,566.2,108.9 M567.5,123c0-2.9-1.8-4.9-4.9-4.9h-6.5v10h6.2c0.8,0,1.7-0.1,2.4-0.4
	C566.5,127,567.5,125.2,567.5,123 M597.8,109.8c0-2.2-0.8-3.9-2.6-4.6c-0.9-0.4-2.2-0.6-3.8-0.6h-4.5v10.8h5.6
	C595.7,115.3,597.8,113.3,597.8,109.8 M619.6,117.4h7.7l-3.2-9.5c-0.5-1.7-0.6-2.9-0.6-2.9h-0.1c0,0-0.1,1.3-0.6,2.9L619.6,117.4z
	 M662.4,109.8c0-2.2-0.8-3.9-2.6-4.6c-0.9-0.4-2.2-0.6-3.8-0.6h-4.5v10.8h5.6C660.2,115.3,662.4,113.3,662.4,109.8 M725.4,108.1
	c0,3.1,3.1,4.2,6.6,5.5c5,1.8,10,3.8,10,10.1c0,6.9-5.8,10-12.1,10c-5.6,0-11.5-2.5-11.5-7.6v-3.8h5.6v2.5c0,2.2,2.7,3.4,5.9,3.4
	c3.4,0,5.8-1.5,5.8-4.2c0-3.4-3.8-4.5-7.7-6c-4.5-1.7-8.9-3.7-8.9-9.7c0-6.8,5.5-9.4,11.2-9.4c5.3,0,10.6,2,10.6,5.9v4.4h-5.6V107
	c0-1.7-2.5-2.6-5-2.6C727.6,104.4,725.4,105.6,725.4,108.1 M715.7,133.1h-25.6v-4.6h4v-24.2h-4v-4.7H715v8.6h-5.3v-3.7h-9.4v9.2
	h11.1v5h-11.1v9.4h10.1v-3.8h5.3V133.1z M687.2,133.1H673v-4.6h4v-24.2h-4v-4.7h14.3v4.7h-4.1v24.2h4.1V133.1z M671.1,133.1h-3.9
	c-2.8,0-3.6-0.6-4.7-2.5l-4.8-8.6c-0.7-1.3-1.3-1.7-3.3-1.7h-3.1v8.2h3.9v4.6h-14.1v-4.6h4v-24.2h-4v-4.7H656c2.5,0,4.5,0.1,6.4,0.7
	c3.7,1.2,6.2,4.3,6.2,9c0,4.7-2.5,8-6.3,9.3v0.1c0,0,1,0.5,1.7,1.7l3.9,7c0.5,0.8,1.1,1.1,2.3,1.1h1.1V133.1z M640.2,133.1h-12.6
	v-4.6h3.3l-2.1-6.3h-10.6l-2.1,6.3h3.3v4.6h-12.6v-4.6h3.1L620,99.5h7l10.1,28.9h3.1V133.1z M606.6,133.1h-3.9
	c-2.8,0-3.6-0.6-4.7-2.5l-4.8-8.6c-0.7-1.3-1.3-1.7-3.3-1.7h-3.1v8.2h3.9v4.6h-14.1v-4.6h4v-24.2h-4v-4.7h14.8
	c2.5,0,4.5,0.1,6.4,0.7c3.7,1.2,6.2,4.3,6.2,9c0,4.7-2.5,8-6.3,9.3v0.1c0,0,1,0.5,1.7,1.7l3.9,7c0.5,0.8,1.1,1.1,2.3,1.1h1.1V133.1z
	 M568.4,115.4L568.4,115.4c3.7,1.2,5.4,4.5,5.4,8c0,4.7-3,8-6.7,9.1c-1.7,0.5-3.2,0.6-5,0.6H546v-4.6h4v-24.2h-4v-4.7h15.4
	c2.5,0,4.3,0.2,6,0.9c3,1.2,5.1,4,5.1,7.7C572.5,111.3,571,114,568.4,115.4 M543.1,133.1h-14.3v-4.6h4v-24.2h-4v-4.7h14.3v4.7H539
	v24.2h4.1V133.1z M527.2,133.1h-25.4v-4.6h4v-24h-4v-5H516v5H512v23.6h9.9v-5.2h5.3V133.1z M771.1,153.2V36.8H528.4h-52.2v116.4
	H771.1z"/>
<path class="st0" d="M63.7,22.8c0-0.1,0.1-0.3,0.1-0.4c-0.1,0-0.2,0-0.2,0c0,0,0,0,0,0C63.6,22.5,63.7,22.6,63.7,22.8 M127.2,113
	c0-5.7-0.2-65.9-0.3-68.4l-0.1-6.5l-6.1-2.9c-18.8-8.8-37.2-11.6-48.3-12.5c0.5,0.6,1.1,1.1,1.8,1.5c11.1,1,28.3,4,45.9,12.2
	l5.3,2.5l0.1,5.7c0,2.5,0.3,62.7,0.3,68.3c0,7.2-10.7,18.3-19.3,26.6c-7.3,7-21.6,20.3-38.8,27.9l-4.1,1.8l-4.1-1.8
	c-17.2-7.7-30.7-20.5-38-27.5c-8.6-8.3-20.1-19.8-20.1-27c0-5.7,0.2-65.9,0.3-68.3L1.8,39l5.3-2.5c17.7-8.3,35.1-11.2,46.2-12.2
	c0.7-0.5,1.3-1,1.7-1.5C44,23.6,25.5,26.4,6.5,35.2l-6.1,2.9l-0.1,6.5C0.2,47.1,0,107.3,0,113c0,6.2,7.7,15.7,20.5,28
	c7.3,7.1,21,20,38.4,27.8l4.7,2.1l4.7-2.1c17.4-7.7,31.8-21.1,39.2-28.2C120.3,128.2,127.2,119.2,127.2,113"/>
<path class="st0" d="M35.7,86.4c1.2-8.3,5.4-28.4,19.9-44.6c0,0-30.3,9.2-38.3,52.8L35.7,86.4z"/>
<path class="st0" d="M91.3,86.4c-1.2-8.3-5.4-28.4-19.9-44.6c0,0,30.3,9.2,38.3,52.8L91.3,86.4z"/>
<path class="st0" d="M99.2,123.5c1.7,0.7,2.8,2.1,3.5,3.8c-1.4,1.5-2.7,2.8-3.7,3.8c-2.6,2.6-6.4,6.1-10.9,9.8v-5.3
	c0.1-6.3,1.2-11.4,5.9-12.5l-1.9-10.7l-3.7-1.7v-2.6l16.5,7.5v2.6l-4.5-2.1L99.2,123.5z M67.2,123.4c5.4,1.5,9.4,6.4,9.4,12.2v13.7
	c-3.4,2.1-6.9,4.1-10.6,5.8l-2.4,1.1l-2.4-1.1c-3.7-1.7-7.2-3.7-10.6-5.8v-13.7c0-5.8,4-10.7,9.4-12.2l-2.4-12.7h-5.9v-2.6h23.8v2.6
	h-5.9L67.2,123.4z M33.1,123.2c4.7,1.1,5.9,6.2,5.9,12.5v5.3c-4.6-3.7-8.3-7.3-11-9.9c-1-1-2.3-2.3-3.6-3.8c0.7-1.8,1.9-3.1,3.6-3.8
	l-1.3-7.3l-4.5,2.1v-2.6l16.5-7.5v2.6l-3.7,1.7L33.1,123.2z M121.6,45.5l-0.1-3.7l-3.4-1.7c-13.8-6.7-27.5-9.8-37.9-11.3
	c-0.2,1.9-0.4,4.7-0.6,7.1c9,1.4,20.5,4.2,32,9.7l3,1.5l0.1,3.3c0,1.6,0,28.6-0.1,45.5l5.8,2.4l-5.8,5.5c0,2.7,0,4.6,0,5.3
	c0,2.4-1.8,5.8-4.3,9.2v-10.7L87.6,97.6H67.3h-7.5H39.5L17,107.6v10.9c-2.5-3.5-4.4-6.9-4.4-9.4c0-0.7,0-2.8,0-5.7l-5.7-5.4l5.6-2.3
	c0-16.9-0.1-43.7-0.1-45.4l0.1-3.3l2.2-1.5c11.7-5.7,23.9-8.4,33.1-9.8c-0.2-2.4-0.4-5.2-0.6-7.1C36.6,30.2,22,33.4,8.1,40.1
	l-2.5,1.7l-0.1,3.7c0,2.6,0.1,60.3,0.1,65.3c0,6.7,12.3,19.7,17.6,24.9c7,7,21.2,19.8,37.6,27.3l2.7,1.2l2.7-1.2
	c16.4-7.6,30.6-20.4,37.6-27.3c0,0,0.1-0.1,0.2-0.2c0,0,0,0,0,0v0c5.4-5.4,17.4-18.1,17.4-24.8C121.5,105.7,121.6,48.1,121.6,45.5"
	/>
<path class="st0" d="M75.3,35.4l0.4-7.1c0,0-10,0.5-9.9-20.1c0,0-0.5-0.3-1.4-0.5c1.2-0.4,2-1.4,2-2.7c0-1.6-1.3-2.9-2.9-2.9
	S60.6,3.4,60.6,5c0,1.3,0.8,2.3,2,2.7c-1,0.2-1.5,0.5-1.5,0.5c0.5,20.6-9.9,20.1-9.9,20.1l0.4,7.1c7.7,0.1,8.1,5.2,8.1,5.2
	C45.2,58.1,43,77.4,42.8,85.9h17h7.5h16.9c-0.2-8.5-2.4-27.8-17-45.2C67.3,40.6,67.6,35.5,75.3,35.4"/>
<path class="st0" d="M449.3,141.7v-2c0-0.5,0.2-0.7,0.7-0.7c0.4,0,1.3,0.2,1.3,1.3c0,0.5-0.2,0.9-0.6,1.1c-0.2,0.2-0.7,0.2-0.9,0.2
	H449.3z M454.1,145.1c-0.2-0.1-0.4-0.3-0.7-0.5c-0.8-0.9-1.3-1.5-1.8-2.6c0.9-0.3,1.5-0.9,1.5-1.9c0-1.6-1.4-1.9-2.6-1.9h-3.7v0.8
	c0.9,0.1,1,0.1,1,1v3.7c0,1-0.1,1-1,1v0.9h3.7v-0.9c-0.9-0.1-1-0.1-1-1v-1.3h0.2c0.3,0,0.5,0.1,0.8,0.4c0.2,0.4,0.5,1.1,1,1.8
	c0.7,0.9,1.4,1.1,2.6,1.1L454.1,145.1z M450.1,136.2c3.2,0,5.5,2.6,5.5,5.8c0,3.3-2.4,5.7-5.5,5.7c-3.1,0-5.5-2.5-5.5-5.7
	C444.6,138.8,446.9,136.2,450.1,136.2 M450.1,135c-4,0-7.1,3.2-7.1,7c0,4,3,7,7.1,7c4,0,7.1-3.3,7.1-7
	C457.2,138.2,454.1,135,450.1,135"/>
<path class="st0" d="M157.1,63.3V125c0,7.2-2,12-6.8,14.8c-4.3,2.4-7.8,2.5-7.8,6.1c0,1.7,1.4,2.8,4.1,2.8c3.2,0,12.4-1.4,26.9-1.4
	c13,0,23.7,1.4,31.9,1.4c10.6,0,17.7-2.7,22.5-9c4.3-5.7,6.6-13.8,6.6-17.2c0-1.9-1-3.1-2.4-3.1c-3.4,0-3.4,5.5-10.7,11.2
	c-7,5.5-18.9,9.1-30.3,9.1c-12.8,0-13.6-3.3-13.6-14.5v-24.5c0-6.5,0.9-8.8,7.2-8.8h6.6c9.9,0,14.5,1.6,17.2,8.2c2,5.2,0.3,9,4.6,9
	c1.9,0,2.9-0.9,2.9-3c0-1.9-1.4-8.7-1.4-20.5c0-7.2,0.7-11,0.7-12c0-2.2-0.7-3.3-2.7-3.3c-4.1,0-4.1,4.9-7.3,9
	c-3.4,4.1-7.7,5.3-15,5.3h-5.5c-5.3,0-7.3-1.9-7.3-6.6V53.6c0-6.9,3.8-9.1,13.8-9.1c16.9,0,24.9,2.2,28.5,9c2.4,4.7-0.2,9.1,4.4,9.1
	c2.4,0,2.7-0.8,2.7-3.1c0-1.1-0.2-5.7-0.2-13.4v-3.3c0-5.2-1-5.7-6.8-5.7c-7.5,0-23.5,1.3-48.2,1.3c-18.2,0-28-1.3-29.5-1.3
	c-2.9,0-4.4,1.3-4.4,3.3c0,5.2,8.7,1.6,14.8,6.8C156.9,50.9,157.1,55.6,157.1,63.3"/>
<path class="st0" d="M461.9,39.6c0-1.9-1.2-2.5-3.8-2.5c-2.7,0-8,1.3-16,1.3c-8.2,0-14.1-1.1-17.7-1.1c-2.7,0-4.3,0.6-4.3,2.7
	c0,4.2,6.1,2.8,13.1,5.3c6.6,2.5,7.7,9,7.7,20.1v27.2c0,16.8-1.4,28.6-9.2,37.1c-6.3,6.9-16,10.7-27.3,10.7
	c-12.3,0-22-5.3-27.6-14.5c-4.6-7.6-4.8-16.8-4.8-28.2v-2.4v-25c0-15.6,0.2-23,5.5-25.8c4.1-2.2,8.5-1.6,8.5-4.9
	c0-2-1.5-2.8-4.6-2.8c-3.6,0-11.3,1.6-23.5,1.6c-9.4,0-16-1.1-19.6-1.1c-0.9,0-1.7,0.1-2.3,0.2c0,0,0,0,0,0
	c-0.3,0.1-0.6,0.2-0.8,0.3c0,0,0,0,0,0c-0.1,0.1-0.2,0.1-0.3,0.2c-1.2,0.6-2.2,1.8-3.1,3.6c-0.2,0.3-0.3,0.6-0.5,0.9c0,0,0,0,0,0.1
	c0,0,0,0,0,0c-0.6,1.2-1.3,2.4-3.2,2.4c-3.1,0-15.9-9.6-37.8-9.6c-17.6,0-32.6,6.6-43.6,18.7c-10.2,11.3-16,26.3-16,42
	c0,32.1,22.5,54.4,56.1,54.4c16.9,0,31.4-5.2,43.1-15.6c7.7-6.8,11.3-12.3,11.3-14.6c0-1.6-0.9-2.4-2.2-2.4c-3.1,0-4.9,4.2-10.2,8.7
	c-9.9,8-21.6,12.4-32.7,12.4c-14.3,0-26.1-6.8-34.8-19.8c-6.3-9.3-9.7-20.9-9.7-32.6c0-28.2,16.4-45,36.1-45
	c15,0,29.5,7.6,39.2,20.1c7.3,9.6,6.8,14,10.6,14c1.5,0,2.4-0.8,2.4-2.8c0-2.7-1.9-11.5-2.6-25.8c-0.1-1.6,0-3-0.1-4
	c1.8,0.4,4.3,0.6,7.3,1.7c5.8,1.9,7.5,4.4,7.5,14v38.4c0,35.4,11.6,52.9,46,52.9c34.4,0,51.8-18.9,51.8-56.6V73.3
	c0-17,0-25.8,3.8-28.3C457.4,42.3,461.9,43.2,461.9,39.6"/>
</svg>
